# xmcd
#
# Track frame offsets: 
#        150
#        9570
#        24115
#        37735
#        47520
#        62742
#        75402
#        86502
#        95710
#        105852
#        114775
#        129352
#        141807
#        153572
#        165775
#
# Disc length: 2322 seconds
#
# Revision: 1
# Processed by: cddbd v1.5.1PL2 Copyright (c) Steve Scherf et al.
# Submitted via: ExactAudioCopy v0.95b4
#
DISCID=9909100f
DTITLE=Luman, Bob - Classic Country
DYEAR=1998
DGENRE=Country
TTITLE0=Let's Think About Living
TTITLE1=Lonely Women Make Good Lovers
TTITLE2=A Satisfied Mind
TTITLE3=He's Got A Way With Women
TTITLE4=Neither One Of Us (Wants To Be The First To Say Goodbye)
TTITLE5=It Takes You
TTITLE6=Come On Home And Sing The Blues To Daddy
TTITLE7=Every Day I Have To Cry Some
TTITLE8=When You  Say Love
TTITLE9=Still Loving You
TTITLE10=Labor Of Love
TTITLE11=Proud Of You Baby
TTITLE12=Honky Tonk Man
TTITLE13=Just Enough To Make Me Stay
TTITLE14=Ain't Got Time To Be Unhappy
EXTD=Entered By Itaot...
EXTT0=
EXTT1=
EXTT2=
EXTT3=
EXTT4=
EXTT5=
EXTT6=
EXTT7=
EXTT8=
EXTT9=
EXTT10=
EXTT11=
EXTT12=
EXTT13=
EXTT14=
PLAYORDER=
